<svg width="200" height="200" viewBox="0 0 200 200" xmlns="http://www.w3.org/2000/svg">
  <defs>
    <linearGradient id="bgGradient" x1="0%" y1="0%" x2="100%" y2="100%">
      <stop offset="0%" style="stop-color:#E5E7EB;stop-opacity:1" />
      <stop offset="100%" style="stop-color:#F3F4F6;stop-opacity:1" />
    </linearGradient>
    <linearGradient id="purpleGradient" x1="0%" y1="0%" x2="100%" y2="100%">
      <stop offset="0%" style="stop-color:#8B5CF6;stop-opacity:1" />
      <stop offset="50%" style="stop-color:#7C3AED;stop-opacity:1" />
      <stop offset="100%" style="stop-color:#5B21B6;stop-opacity:1" />
    </linearGradient>
    <linearGradient id="blueGradient" x1="0%" y1="0%" x2="100%" y2="100%">
      <stop offset="0%" style="stop-color:#3B82F6;stop-opacity:1" />
      <stop offset="50%" style="stop-color:#2563EB;stop-opacity:1" />
      <stop offset="100%" style="stop-color:#1D4ED8;stop-opacity:1" />
    </linearGradient>
    <linearGradient id="cyanGradient" x1="0%" y1="0%" x2="100%" y2="100%">
      <stop offset="0%" style="stop-color:#06B6D4;stop-opacity:1" />
      <stop offset="50%" style="stop-color:#0891B2;stop-opacity:1" />
      <stop offset="100%" style="stop-color:#0E7490;stop-opacity:1" />
    </linearGradient>
    <filter id="shadow" x="-50%" y="-50%" width="200%" height="200%">
      <feDropShadow dx="0" dy="8" stdDeviation="12" flood-color="#000000" flood-opacity="0.25"/>
    </filter>
    <filter id="textShadow" x="-50%" y="-50%" width="200%" height="200%">
      <feDropShadow dx="2" dy="2" stdDeviation="3" flood-color="#000000" flood-opacity="0.5"/>
    </filter>
  </defs>
  
  <!-- Background circle -->
  <circle cx="100" cy="100" r="95" fill="url(#bgGradient)" filter="url(#shadow)"/>
  
  <!-- Purple section (left) -->
  <path d="M 100 100 L 100 20 A 80 80 0 0 0 43.43 56.57 Z" fill="url(#purpleGradient)"/>
  
  <!-- Blue section (bottom left) -->
  <path d="M 100 100 L 43.43 56.57 A 80 80 0 0 0 43.43 143.43 Z" fill="url(#blueGradient)"/>
  
  <!-- Cyan section (bottom right) -->
  <path d="M 100 100 L 43.43 143.43 A 80 80 0 0 0 156.57 143.43 Z" fill="url(#cyanGradient)"/>
  
  <!-- Letter I with dark background -->
  <rect x="62" y="52" width="28" height="96" fill="#1F2937" rx="4" opacity="0.9"/>
  <rect x="70" y="60" width="12" height="80" fill="white" rx="2"/>
  <rect x="65" y="60" width="22" height="8" fill="white" rx="2"/>
  <rect x="65" y="132" width="22" height="8" fill="white" rx="2"/>
  
  <!-- Letter P with dark background -->
  <rect x="102" y="52" width="43" height="96" fill="#1F2937" rx="4" opacity="0.9"/>
  <g filter="url(#textShadow)">
    <rect x="110" y="60" width="12" height="80" fill="white" rx="2"/>
    <rect x="110" y="60" width="25" height="8" fill="white" rx="2"/>
    <rect x="110" y="96" width="20" height="8" fill="white" rx="2"/>
    <rect x="130" y="68" width="8" height="28" fill="white" rx="2"/>
  </g>
  
  <!-- Decorative elements -->
  <circle cx="160" cy="70" r="3" fill="rgba(255,255,255,0.8)"/>
  <circle cx="40" cy="130" r="2" fill="rgba(255,255,255,0.6)"/>
  <circle cx="160" cy="160" r="2.5" fill="rgba(255,255,255,0.7)"/>
</svg>