<?xml version="1.0" encoding="UTF-8"?>
<svg version="1.1" xmlns="http://www.w3.org/2000/svg" width="525" height="303">
<path d="M0 0 C173.25 0 346.5 0 525 0 C525 99.99 525 199.98 525 303 C351.75 303 178.5 303 0 303 C0 203.01 0 103.02 0 0 Z " fill="#FDFDFC" transform="translate(0,0)"/>
<path d="M0 0 C1.45642779 1.20667934 2.89390755 2.43655939 4.3125 3.6875 C5.06273437 4.34363281 5.81296875 4.99976563 6.5859375 5.67578125 C17.45086077 15.81761235 26.42187246 31.24464417 27.50537109 46.38208008 C28.2054492 73.10172762 28.2054492 73.10172762 22.3125 85.6875 C21.93996094 86.58855469 21.56742188 87.48960937 21.18359375 88.41796875 C14.63777629 103.12895225 1.30556273 115.62667498 -13.67822266 121.46289062 C-33.24272413 128.38789278 -52.58414498 128.71141849 -71.8046875 120.203125 C-76.84026058 117.55569634 -81.24495373 114.21893583 -85.6875 110.6875 C-86.64076172 109.99914062 -86.64076172 109.99914062 -87.61328125 109.296875 C-95.44170123 103.3220809 -102.21740057 92.85501848 -105.6875 83.6875 C-106.24244141 82.24890625 -106.24244141 82.24890625 -106.80859375 80.78125 C-111.874056 65.21678468 -112.77993582 44.70923722 -105.6875 29.6875 C-105.17832031 28.59695312 -104.66914063 27.50640625 -104.14453125 26.3828125 C-94.62823877 7.52443885 -80.09690069 -4.61947884 -60.28515625 -11.62109375 C-39.73712036 -17.09027022 -16.96706563 -12.63753854 0 0 Z " fill="#2C3944" transform="translate(382.6875,173.3125)"/>
<path d="M0 0 C1.11571381 -0.00945648 2.23142761 -0.01891296 3.38095093 -0.02865601 C5.18712387 -0.01954697 5.18712387 -0.01954697 7.02978516 -0.01025391 C8.27829254 -0.01312408 9.52679993 -0.01599426 10.81314087 -0.01895142 C13.46135456 -0.02099462 16.10874041 -0.01695834 18.75683594 -0.00292969 C21.44714279 0.01064466 24.13684291 0.01087687 26.82714844 -0.00292969 C30.72820751 -0.02166861 34.62870026 -0.01915386 38.52978516 -0.01025391 C39.71365814 -0.0163266 40.89753113 -0.02239929 42.11727905 -0.02865601 C61.4201698 0.1304547 78.54099413 5.90557877 92.69384766 19.20068359 C106.96620694 34.24840244 108.94012666 53.67682924 108.71728516 73.47412109 C108.24737326 90.60962124 102.87924982 105.62076262 90.81494141 118.17333984 C72.3697585 135.4030247 48.9398279 135.89599701 25.12402344 135.77929688 C21.16128001 135.76305007 17.19953103 135.77929537 13.23681641 135.79833984 C10.71728291 135.7963603 8.19775002 135.79252264 5.67822266 135.78662109 C4.49395691 135.79269379 3.30969116 135.79876648 2.08953857 135.80502319 C0.99699768 135.79556671 -0.09554321 135.78611023 -1.22119141 135.77636719 C-2.66223236 135.77278702 -2.66223236 135.77278702 -4.13238525 135.76913452 C-7.07535208 135.30657937 -7.77055531 134.734164 -9.55615234 132.38818359 C-9.93646908 130.01277924 -9.93646908 130.01277924 -9.9438324 127.15026855 C-9.95373703 126.06505417 -9.96364166 124.97983978 -9.97384644 123.86174011 C-9.96934479 122.6709938 -9.96484314 121.4802475 -9.96020508 120.25341797 C-9.96706833 118.99958817 -9.97393158 117.74575836 -9.98100281 116.45393372 C-9.9961855 113.01375453 -9.99776029 109.57411635 -9.99206042 106.13394356 C-9.98897347 103.26350292 -9.9950554 100.39311154 -10.00109917 97.5226779 C-10.01515277 90.75238173 -10.01357587 83.98221172 -10.00219727 77.21191406 C-9.99071127 70.22320441 -10.00479755 63.23487828 -10.03159374 56.24621916 C-10.0537302 50.24868166 -10.06039291 44.25126475 -10.05451733 38.25368929 C-10.05114203 34.67035012 -10.0536005 31.08725691 -10.07076836 27.50395203 C-10.08906757 23.51013064 -10.0750715 19.51678332 -10.05786133 15.52294922 C-10.0675293 14.33220291 -10.07719727 13.1414566 -10.0871582 11.91462708 C-10.07732407 10.82941269 -10.06748993 9.7441983 -10.05735779 8.62609863 C-10.0571485 7.68147011 -10.05693922 6.73684158 -10.05672359 5.76358795 C-9.55615234 3.38818359 -9.55615234 3.38818359 -7.68662167 1.58462334 C-4.97230042 0.06030108 -3.10683434 0.00757242 0 0 Z " fill="#2B3943" transform="translate(92.55615234375,4.61181640625)"/>
<path d="M0 0 C1.18941696 -0.01268417 2.37883392 -0.02536835 3.60429382 -0.03843689 C5.54004021 -0.03403343 5.54004021 -0.03403343 7.51489258 -0.02954102 C8.86233278 -0.03410799 10.20977066 -0.0394151 11.5572052 -0.04542542 C14.39109702 -0.05437273 17.22470751 -0.0519243 20.05859375 -0.04199219 C22.93617059 -0.03287802 25.81293093 -0.03952875 28.69042969 -0.0625 C70.59459352 -0.39564357 70.59459352 -0.39564357 85.30786133 13.35327148 C93.56510331 22.22022542 96.61335761 32.23891491 96.53442383 44.21655273 C96.52878418 45.10584473 96.52314453 45.99513672 96.51733398 46.91137695 C96.30587339 58.31978084 93.13142023 67.74290986 85.44067383 76.41186523 C75.77435387 85.56317634 63.24561898 88.6394134 50.28442383 88.78295898 C49.47827637 88.79995346 48.67212891 88.81694794 47.84155273 88.8344574 C45.30175305 88.88700508 42.76196646 88.92767207 40.22192383 88.96655273 C37.65339008 89.01050651 35.08497977 89.05708205 32.51660156 89.10935974 C30.92636541 89.14129964 29.33601844 89.16819518 27.74560547 89.18959045 C24.18714348 88.93184599 24.18714348 88.93184599 21.22192383 90.40405273 C21.09870301 93.32434792 21.03577954 96.22464293 21.01098633 99.14624023 C20.98291788 100.95223888 20.95425342 102.75822835 20.92504883 104.56420898 C20.8837559 107.42374417 20.84688649 110.28310791 20.82055664 113.14282227 C20.79299884 115.89432606 20.74712589 118.64503931 20.69848633 121.39624023 C20.69523346 122.2525705 20.69198059 123.10890076 20.68862915 123.99118042 C20.67206268 124.78855621 20.65549622 125.58593201 20.63842773 126.4074707 C20.63034088 127.10838837 20.62225403 127.80930603 20.61392212 128.53146362 C20.1024066 130.97499056 19.16460061 131.87971048 17.22192383 133.40405273 C14.81762695 133.79223633 14.81762695 133.79223633 12.00317383 133.80249023 C10.98868164 133.80635742 9.97418945 133.81022461 8.92895508 133.81420898 C7.87063477 133.80260742 6.81231445 133.79100586 5.72192383 133.77905273 C4.66360352 133.7906543 3.6052832 133.80225586 2.51489258 133.81420898 C0.9931543 133.8084082 0.9931543 133.8084082 -0.55932617 133.80249023 C-1.4880957 133.79910645 -2.41686523 133.79572266 -3.3737793 133.79223633 C-6.29677485 133.3203067 -6.99906037 132.73329955 -8.77807617 130.40405273 C-9.15559959 128.05988312 -9.15559959 128.05988312 -9.1590271 125.24206543 C-9.16748657 124.17367935 -9.17594604 123.10529327 -9.18466187 122.00453186 C-9.17858917 120.83248703 -9.17251648 119.6604422 -9.16625977 118.45288086 C-9.17151672 117.2185582 -9.17677368 115.98423553 -9.18218994 114.71250916 C-9.19314307 111.32603663 -9.19055954 107.94011285 -9.18105268 104.55367088 C-9.17346321 101.01164379 -9.18049971 97.46964031 -9.18521118 93.9276123 C-9.19067083 87.97912378 -9.18347171 82.03074696 -9.16918945 76.08227539 C-9.15286245 69.20268251 -9.15815081 62.32335635 -9.17466867 55.44376993 C-9.18827765 49.53965422 -9.19020611 43.63561885 -9.18235266 37.73149252 C-9.17767287 34.20409364 -9.17705958 30.67682017 -9.18696213 27.14942932 C-9.19722799 23.21792208 -9.18300391 19.28671417 -9.16625977 15.35522461 C-9.17233246 14.18317978 -9.17840515 13.01113495 -9.18466187 11.80357361 C-9.17620239 10.73518753 -9.16774292 9.66680145 -9.1590271 8.56604004 C-9.15789602 7.6361602 -9.15676495 6.70628036 -9.15559959 5.74822235 C-8.28556977 0.3459152 -4.87280504 0.0251578 0 0 Z " fill="#2C3944" transform="translate(16.778076171875,162.595947265625)"/>
<path d="M0 0 C1.25232422 -0.00563965 2.50464844 -0.0112793 3.79492188 -0.01708984 C4.46785278 -0.02187347 5.14078369 -0.0266571 5.83410645 -0.03158569 C7.25287217 -0.03497898 8.67171668 -0.02581584 10.09033203 -0.00488281 C12.2579636 0.02190212 14.42041943 -0.00463798 16.58789062 -0.03662109 C17.96941243 -0.03331688 19.35093102 -0.02691038 20.73242188 -0.01708984 C22.6109082 -0.00863037 22.6109082 -0.00863037 24.52734375 0 C27.76367188 0.64697266 27.76367188 0.64697266 29.92724609 2.46533203 C32.64115803 7.16723317 34.37499553 12.10758615 36.17773438 17.21728516 C36.59227875 18.3669577 37.00682312 19.51663025 37.43392944 20.70114136 C38.7613014 24.38821656 40.0753746 28.07986366 41.38867188 31.77197266 C42.67736605 35.36749256 43.96881035 38.96201713 45.26029968 42.55653381 C46.12575185 44.96602843 46.99017375 47.37589333 47.85359192 49.78611755 C53.37218463 65.17528723 59.07312456 80.49691862 64.82354736 95.80078125 C66.03444007 99.02565307 67.24011157 102.25246032 68.44458008 105.47973633 C69.04545983 107.08468931 69.64942977 108.68848794 70.25610352 110.29125977 C71.16391437 112.6920209 72.06051912 115.09671625 72.95507812 117.50244141 C73.35962975 118.5602607 73.35962975 118.5602607 73.77235413 119.63945007 C75.49814353 124.32416621 76.48777483 128.6453678 76.76367188 133.64697266 C73.56177475 136.84886979 69.8573704 135.94239814 65.4921875 135.96923828 C64.28240234 135.96601563 63.07261719 135.96279297 61.82617188 135.95947266 C60.01729492 135.98364258 60.01729492 135.98364258 58.171875 136.00830078 C56.4403418 136.00926758 56.4403418 136.00926758 54.67382812 136.01025391 C53.61301025 136.01323486 52.55219238 136.01621582 51.45922852 136.01928711 C48.76367188 135.64697266 48.76367188 135.64697266 47.01977539 134.45483398 C45.43712949 132.1769928 44.63149717 129.99113282 43.75585938 127.35791016 C43.40910156 126.33439453 43.06234375 125.31087891 42.70507812 124.25634766 C42.35316406 123.18900391 42.00125 122.12166016 41.63867188 121.02197266 C40.93013495 118.90398057 40.2193218 116.78674813 39.50585938 114.67041016 C39.19503418 113.73116699 38.88420898 112.79192383 38.56396484 111.82421875 C37.95572965 109.69911788 37.95572965 109.69911788 36.76367188 108.64697266 C35.22884218 108.55377816 33.68975105 108.52951465 32.15209961 108.53344727 C31.17115829 108.5335228 30.19021698 108.53359833 29.17955017 108.53367615 C28.11289627 108.53883743 27.04624237 108.54399872 25.94726562 108.54931641 C24.86107437 108.55073135 23.77488312 108.5521463 22.65577698 108.55360413 C19.17088113 108.55922217 15.68604846 108.57177773 12.20117188 108.58447266 C9.84505301 108.58948533 7.48893314 108.59404864 5.1328125 108.59814453 C-0.65692277 108.60919747 -6.44662093 108.62595315 -12.23632812 108.64697266 C-12.49325439 109.39382324 -12.75018066 110.14067383 -13.01489258 110.91015625 C-14.18233373 114.28451575 -15.36535553 117.65320416 -16.54882812 121.02197266 C-17.15500977 122.78541016 -17.15500977 122.78541016 -17.7734375 124.58447266 C-18.16982422 125.70595703 -18.56621094 126.82744141 -18.97460938 127.98291016 C-19.33594971 129.0197998 -19.69729004 130.05668945 -20.06958008 131.125 C-21.23632812 133.64697266 -21.23632812 133.64697266 -24.23632812 135.64697266 C-28.38887151 136.0876907 -32.56296029 135.97113011 -36.73632812 135.95947266 C-37.89003906 135.97558594 -39.04375 135.99169922 -40.23242188 136.00830078 C-41.33714844 136.00894531 -42.441875 136.00958984 -43.58007812 136.01025391 C-44.59263672 136.01323486 -45.60519531 136.01621582 -46.6484375 136.01928711 C-49.23632812 135.64697266 -49.23632812 135.64697266 -51.15234375 134.49926758 C-52.23632812 132.64697266 -52.23632812 132.64697266 -52.16650391 130.13476562 C-50.86360636 125.24941278 -49.13369358 120.57182126 -47.35351562 115.84228516 C-46.95093033 114.75823395 -46.54834503 113.67418274 -46.13356018 112.55728149 C-44.79735557 108.96047214 -43.45429518 105.36626192 -42.11132812 101.77197266 C-40.19949026 96.63553655 -38.29250257 91.49731896 -36.38867188 86.35791016 C-36.14144693 85.69100662 -35.89422199 85.02410309 -35.63950539 84.33699036 C-31.63367878 73.52347213 -27.7267391 62.67684555 -23.86523438 51.81103516 C-23.34021131 50.33612167 -22.81510596 48.86123748 -22.28991699 47.38638306 C-19.99402903 40.93613491 -17.70298241 34.48433564 -15.43192768 28.02529716 C-14.49028859 25.35355199 -13.54070295 22.68467973 -12.58912468 20.01646042 C-11.93903889 18.18519938 -11.29926218 16.35028888 -10.6598053 14.51528931 C-10.26667648 13.41631317 -9.87354767 12.31733704 -9.46850586 11.18505859 C-8.96395119 9.75416901 -8.96395119 9.75416901 -8.44920349 8.29437256 C-6.45503255 3.94160219 -4.82881255 0.96532538 0 0 Z " fill="#2C3944" transform="translate(382.236328125,4.35302734375)"/>
<path d="M0 0 C0.84058456 0.00404846 1.68116913 0.00809692 2.54722595 0.01226807 C3.43188034 0.00876343 4.31653473 0.00525879 5.22799683 0.00164795 C8.16195954 -0.00717853 11.09568252 -0.00131699 14.02964783 0.00543213 C16.06224107 0.00408574 18.09483401 0.00214543 20.12742615 -0.00036621 C24.39125122 -0.00331872 28.65499262 0.00098424 32.91880798 0.01031494 C38.39359956 0.02170952 43.86819506 0.01515073 49.34297943 0.00317001 C53.54132066 -0.00404516 57.73961515 -0.00176223 61.93795776 0.0034256 C63.95705183 0.00476304 65.97615009 0.00311108 67.99523926 -0.00153351 C70.81346435 -0.00659312 73.63136861 0.00110351 76.4495697 0.01226807 C77.29015427 0.0082196 78.13073883 0.00417114 78.99679565 0 C84.76986991 0.04252921 84.76986991 0.04252921 86.99839783 2.27105713 C87.44709444 5.56349317 87.32248025 8.88903456 87.31089783 12.20855713 C87.32701111 13.12830322 87.34312439 14.04804932 87.35972595 14.9956665 C87.36037048 15.87931885 87.36101501 16.76297119 87.36167908 17.67340088 C87.36466003 18.48285156 87.36764099 19.29230225 87.37071228 20.12628174 C86.89149521 22.88688631 86.23164643 23.5928945 83.99839783 25.27105713 C81.28387451 25.66978455 81.28387451 25.66978455 77.96641541 25.70343018 C76.72535538 25.72322433 75.48429535 25.74301849 74.20562744 25.76341248 C72.85139619 25.77018222 71.4971633 25.77662909 70.14292908 25.78277588 C68.75714521 25.79962117 67.37137664 25.81777122 65.98562622 25.83717346 C62.34098591 25.88469651 58.6964076 25.91449057 55.05155945 25.94061279 C51.33124124 25.97040696 47.61113244 26.01677941 43.89097595 26.06207275 C36.59343254 26.14970033 29.29639734 26.20962259 21.99839783 26.27105713 C21.99839783 35.18105713 21.99839783 44.09105713 21.99839783 53.27105713 C25.86171814 53.30843994 29.72503845 53.34582275 33.70542908 53.38433838 C37.43864168 53.43052221 41.17175275 53.48176743 44.90489197 53.5335083 C47.50346226 53.56680456 50.10210569 53.59482167 52.70079041 53.61749268 C56.43182102 53.65095164 60.16217843 53.70326442 63.89292908 53.75933838 C65.64147942 53.76892326 65.64147942 53.76892326 67.425354 53.77870178 C68.50624802 53.79849594 69.58714203 53.8182901 70.70079041 53.83868408 C71.65343277 53.84978714 72.60607513 53.8608902 73.58758545 53.87232971 C76.40867241 54.33891298 77.31165044 55.00064057 78.99839783 57.27105713 C79.38658142 59.39996338 79.38658142 59.39996338 79.39683533 61.83355713 C79.40070251 62.71269775 79.4045697 63.59183838 79.40855408 64.49761963 C79.39695251 65.412854 79.38535095 66.32808838 79.37339783 67.27105713 C79.38499939 68.1862915 79.39660095 69.10152588 79.40855408 70.04449463 C79.40468689 70.92363525 79.4008197 71.80277588 79.39683533 72.70855713 C79.39345154 73.51164307 79.39006775 74.314729 79.38658142 75.14215088 C78.89091981 77.86049633 78.17501922 78.59180529 75.99839783 80.27105713 C73.58758545 80.66978455 73.58758545 80.66978455 70.70079041 80.70343018 C69.61989639 80.72322433 68.53900238 80.74301849 67.425354 80.76341248 C65.67680367 80.77299736 65.67680367 80.77299736 63.89292908 80.78277588 C62.69858749 80.80072708 61.50424591 80.81867828 60.27371216 80.83717346 C56.45281015 80.89142746 52.63203412 80.92522141 48.81089783 80.95855713 C46.22298961 80.99171678 43.63509805 81.02620515 41.04722595 81.06207275 C34.6975969 81.14966789 28.34854968 81.20961088 21.99839783 81.27105713 C21.99839783 90.18105713 21.99839783 99.09105713 21.99839783 108.27105713 C23.89638123 108.29087646 25.79436462 108.3106958 27.74986267 108.33111572 C34.01246215 108.39881651 40.27489873 108.47558614 46.53731346 108.55858421 C50.33517664 108.60858497 54.13301148 108.65491438 57.93101501 108.69293213 C61.59454736 108.72973762 65.25784483 108.77608406 68.92117691 108.82912064 C70.32060766 108.84768992 71.72008881 108.86278849 73.11959457 108.87440109 C75.07587733 108.89121955 77.03203164 108.92139066 78.98814392 108.95220947 C80.66026443 108.97219498 80.66026443 108.97219498 82.36616516 108.99258423 C84.99839783 109.27105713 84.99839783 109.27105713 86.99839783 111.27105713 C87.25718689 113.394104 87.25718689 113.394104 87.26402283 115.98980713 C87.26789001 117.38779541 87.26789001 117.38779541 87.27183533 118.81402588 C87.26410095 119.78984619 87.25636658 120.7656665 87.24839783 121.77105713 C87.25999939 123.2347876 87.25999939 123.2347876 87.27183533 124.72808838 C87.2692572 125.66008057 87.26667908 126.59207275 87.26402283 127.55230713 C87.26176697 128.40888916 87.25951111 129.26547119 87.25718689 130.14801025 C86.99839783 132.27105713 86.99839783 132.27105713 84.99839783 134.27105713 C82.15288376 134.47501674 79.40429541 134.5542168 76.55723572 134.54571533 C75.68394119 134.55082626 74.81064667 134.55593719 73.91088867 134.561203 C71.01420809 134.57514217 68.11776428 134.57413898 65.22105408 134.57183838 C63.21327627 134.57572298 61.20549929 134.58005716 59.19772339 134.58482361 C54.98517699 134.59229516 50.77271438 134.59198781 46.56016541 134.58673096 C41.15490925 134.58093558 35.74999567 134.59786451 30.34479618 134.62107563 C26.19702134 134.63578921 22.04932944 134.63668791 17.90153313 134.6335659 C15.90837869 134.63408033 13.91521976 134.63934068 11.92209053 134.64937782 C9.13748377 134.66167874 6.35355 134.65498882 3.56895447 134.64337158 C2.74131592 134.65101532 1.91367737 134.65865906 1.06095886 134.66653442 C-4.50910694 134.61502514 -4.50910694 134.61502514 -6.71346664 133.07545853 C-8.45980814 130.62920891 -8.37635496 129.02073685 -8.37582397 126.02641296 C-8.38283829 124.93975342 -8.3898526 123.85309387 -8.39707947 122.73350525 C-8.38943573 121.5411879 -8.38179199 120.34887054 -8.37391663 119.12042236 C-8.37756729 117.86498627 -8.38121796 116.60955017 -8.38497925 115.31607056 C-8.39439122 111.87190682 -8.38496099 108.4280271 -8.37164712 104.98388553 C-8.36034032 101.38267388 -8.36443947 97.78147637 -8.36639404 94.18025208 C-8.36727715 88.13340609 -8.35619223 82.08667218 -8.33778381 76.03985596 C-8.31660632 69.04327239 -8.31310822 62.04685292 -8.31934577 55.05024379 C-8.32503474 48.32529874 -8.31939993 41.60041163 -8.30817223 34.87547493 C-8.30352099 32.01067092 -8.30265463 29.14590227 -8.30475807 26.2810955 C-8.30698648 22.28476697 -8.29255221 18.28859543 -8.27626038 14.29229736 C-8.27873779 13.09795578 -8.28121521 11.9036142 -8.2837677 10.67308044 C-8.27668289 9.58924072 -8.26959808 8.505401 -8.26229858 7.38871765 C-8.26024571 6.44316733 -8.25819284 5.49761702 -8.25607777 4.52341366 C-7.68556596 -0.52617075 -4.27062289 0.03146092 0 0 Z " fill="#2B3842" transform="translate(227.00160217285156,5.72894287109375)"/>
<path d="M0 0 C0.85803223 -0.00708481 1.71606445 -0.01416962 2.60009766 -0.02146912 C3.53837402 -0.0189917 4.47665039 -0.01651428 5.44335938 -0.01396179 C6.43384277 -0.01907272 7.42432617 -0.02418365 8.44482422 -0.02944946 C11.72564704 -0.0433733 15.00626048 -0.04238675 18.28710938 -0.04008484 C20.5625008 -0.04396989 22.8378915 -0.04830416 25.11328125 -0.05307007 C29.88478953 -0.06053804 34.65622383 -0.06023655 39.42773438 -0.05497742 C45.55150893 -0.04917839 51.67498146 -0.06612166 57.79870605 -0.08932209 C62.49806498 -0.10403066 67.19735065 -0.10493512 71.89672852 -0.10181236 C74.15503539 -0.1023269 76.41334622 -0.10758938 78.67163086 -0.11762428 C81.8249087 -0.12991718 84.97759154 -0.12324017 88.13085938 -0.11161804 C89.06913574 -0.11926178 90.00741211 -0.12690552 90.97412109 -0.13478088 C91.83215332 -0.12776657 92.69018555 -0.12075226 93.57421875 -0.11352539 C94.69250061 -0.113777 94.69250061 -0.113777 95.83337402 -0.1140337 C98.34015469 0.36677154 99.23131623 1.27465529 100.78710938 3.26069641 C101.17529297 5.38960266 101.17529297 5.38960266 101.18554688 7.82319641 C101.18941406 8.70233704 101.19328125 9.58147766 101.19726562 10.48725891 C101.18566406 11.40249329 101.1740625 12.31772766 101.16210938 13.26069641 C101.17371094 14.17593079 101.1853125 15.09116516 101.19726562 16.03413391 C101.19339844 16.91327454 101.18953125 17.79241516 101.18554688 18.69819641 C101.18216309 19.50128235 101.1787793 20.30436829 101.17529297 21.13179016 C100.78710938 23.26069641 100.78710938 23.26069641 99.74316406 25.0160675 C96.71240526 26.94452586 93.57557408 26.72163008 90.09179688 26.73725891 C89.34374786 26.75283844 88.59569885 26.76841797 87.82498169 26.7844696 C85.43736793 26.83198322 83.05004679 26.85975623 80.66210938 26.88569641 C78.26723592 26.92214952 75.87252976 26.96271475 73.47781372 27.00834656 C71.9877398 27.03563847 70.49754282 27.05696129 69.0072937 27.07188416 C65.60909405 26.82360219 65.60909405 26.82360219 62.78710938 28.26069641 C62.68410916 29.59662565 62.64918105 30.9378944 62.64234924 32.277771 C62.63545074 33.14291321 62.62855225 34.00805542 62.6214447 34.89941406 C62.61883133 35.85580276 62.61621796 36.81219147 62.61352539 37.79756165 C62.60349487 39.29988846 62.60349487 39.29988846 62.59326172 40.83256531 C62.57917516 43.01518964 62.56729271 45.19782902 62.55731392 47.380476 C62.54096549 50.82986792 62.51773118 54.27914807 62.49241638 57.72848511 C62.42146456 67.53840106 62.36143689 77.34836264 62.31030273 87.15840149 C62.27858436 93.15072253 62.23732696 99.14291578 62.19010735 105.13513374 C62.17404361 107.4249397 62.1617424 109.71477514 62.15320015 112.00462151 C62.14110255 115.2013592 62.11697659 118.3977942 62.09008789 121.59443665 C62.08949875 122.54880112 62.08890961 123.50316559 62.08830261 124.4864502 C62.07858429 125.35441223 62.06886597 126.22237427 62.05885315 127.11663818 C62.05462121 127.8730532 62.05038927 128.62946821 62.04602909 129.40880489 C61.78710938 131.26069641 61.78710938 131.26069641 59.78710938 133.26069641 C55.82662116 133.71725438 51.83337128 133.58471683 47.84960938 133.57319641 C46.18381836 133.59736633 46.18381836 133.59736633 44.484375 133.62202454 C43.42025391 133.62266907 42.35613281 133.6233136 41.25976562 133.62397766 C39.79422241 133.6284491 39.79422241 133.6284491 38.29907227 133.63301086 C35.30653702 133.18946764 34.6254209 132.60396428 32.78710938 130.26069641 C32.40234852 128.28296375 32.40234852 128.28296375 32.38838196 125.98965454 C32.37584381 125.11887268 32.36330566 124.24809082 32.35038757 123.35092163 C32.35182266 122.39858139 32.35325775 121.44624115 32.35473633 120.46504211 C32.33944885 118.95745834 32.33944885 118.95745834 32.32385254 117.41941833 C32.29361727 114.09171551 32.28444039 110.76430004 32.27539062 107.43647766 C32.25855178 105.13147009 32.24040262 102.82647174 32.22099304 100.52148438 C32.17340086 94.45029076 32.14365106 88.37913455 32.11755371 82.30781555 C32.08779471 76.11429963 32.04124842 69.92091271 31.99609375 63.72749329 C31.90995572 51.57196168 31.84265712 39.41640359 31.78710938 27.26069641 C30.17485474 27.23882263 30.17485474 27.23882263 28.5300293 27.21650696 C24.54336221 27.15854751 20.55726137 27.08131512 16.57104492 26.99824524 C14.84555245 26.96498469 13.11995088 26.93695622 11.39428711 26.91426086 C8.91407772 26.88073488 6.43486907 26.82842235 3.95507812 26.77241516 C3.18310593 26.76602524 2.41113373 26.75963531 1.61576843 26.75305176 C-3.71956471 26.60647933 -3.71956471 26.60647933 -6.1991272 24.86849976 C-7.59306795 22.65774472 -7.6009786 21.04818019 -7.61132812 18.44429016 C-7.61519531 17.51552063 -7.6190625 16.5867511 -7.62304688 15.62983704 C-7.61144531 14.66239563 -7.59984375 13.69495422 -7.58789062 12.69819641 C-7.59949219 11.72688782 -7.61109375 10.75557922 -7.62304688 9.75483704 C-7.61917969 8.82735657 -7.6153125 7.8998761 -7.61132812 6.94429016 C-7.60794434 6.09407288 -7.60456055 5.24385559 -7.60107422 4.36787415 C-7.47297363 3.67250549 -7.34487305 2.97713684 -7.21289062 2.26069641 C-4.12677808 0.20328805 -3.48616818 0.00959952 0 0 Z " fill="#2B3843" transform="translate(417.212890625,162.7393035888672)"/>
<path d="M0 0 C8.90841509 6.64431624 14.43107128 16.13510264 17.3515625 26.75390625 C18.97000723 41.1716407 16.65413379 53.64297335 7.625 65.2734375 C1.94557794 71.47005778 -4.68430284 75.28227825 -12.6484375 77.75390625 C-13.49921875 78.02847656 -13.49921875 78.02847656 -14.3671875 78.30859375 C-23.28240087 80.04889225 -35.48973096 80.06659531 -43.6484375 75.75390625 C-45.91015625 73.64453125 -45.91015625 73.64453125 -47.6484375 71.75390625 C-42.95267493 65.11885472 -38.14469181 58.74825861 -32.6484375 52.75390625 C-33.3084375 51.10390625 -33.9684375 49.45390625 -34.6484375 47.75390625 C-37.79619915 48.40181755 -40.25653414 49.50612206 -43.0546875 51.07421875 C-43.88097656 51.52667969 -44.70726562 51.97914063 -45.55859375 52.4453125 C-47.28847685 53.40287977 -49.0150471 54.36645584 -50.73828125 55.3359375 C-51.56457031 55.78582031 -52.39085937 56.23570312 -53.2421875 56.69921875 C-53.99177734 57.11703613 -54.74136719 57.53485352 -55.51367188 57.96533203 C-58.07632673 58.91196689 -59.1636427 58.85586441 -61.6484375 57.75390625 C-68.23415984 48.06902046 -68.91093369 37.13161337 -67.6484375 25.75390625 C-64.67624171 14.13300341 -57.24746253 4.75132637 -47.6484375 -2.24609375 C-31.33590111 -11.17599172 -15.63318093 -9.90101459 0 0 Z " fill="#FDFCFA" transform="translate(366.6484375,194.24609375)"/>
<path d="M0 0 C1.01449219 -0.00386719 2.02898437 -0.00773438 3.07421875 -0.01171875 C4.13253906 -0.00011719 5.19085938 0.01148438 6.28125 0.0234375 C7.33957031 0.01183594 8.39789063 0.00023437 9.48828125 -0.01171875 C11.01001953 -0.00591797 11.01001953 -0.00591797 12.5625 0 C13.9556543 0.00507568 13.9556543 0.00507568 15.37695312 0.01025391 C18.27954712 0.47888961 18.98393465 1.11993844 20.78125 3.3984375 C21.16601086 5.37617016 21.16601086 5.37617016 21.17997742 7.66947937 C21.19878464 8.97565216 21.19878464 8.97565216 21.2179718 10.30821228 C21.21581917 11.73672264 21.21581917 11.73672264 21.21362305 13.1940918 C21.2238147 14.19914764 21.23400635 15.20420349 21.24450684 16.23971558 C21.2747421 19.5674184 21.28391898 22.89483387 21.29296875 26.22265625 C21.3098076 28.52766383 21.32795675 30.83266217 21.34736633 33.13764954 C21.39495851 39.20884315 21.42470832 45.27999936 21.45080566 51.35131836 C21.48056466 57.54483428 21.52711096 63.7382212 21.57226562 69.93164062 C21.65840366 82.08717223 21.72570225 94.24273032 21.78125 106.3984375 C22.82361565 106.40723686 22.82361565 106.40723686 23.88703918 106.41621399 C30.43501009 106.47411091 36.98265389 106.54616977 43.53029346 106.63415241 C46.89655477 106.67888591 50.26269423 106.71813489 53.62915039 106.74487305 C57.49916721 106.7783273 61.36853447 106.83064002 65.23828125 106.88671875 C67.05245293 106.89630363 67.05245293 106.89630363 68.90327454 106.90608215 C70.02421005 106.92587631 71.14514557 106.94567047 72.30004883 106.96606445 C73.28822098 106.97716751 74.27639313 106.98827057 75.29450989 106.99971008 C78.16597906 107.4601255 79.07273072 108.0861133 80.78125 110.3984375 C81.16943359 112.41967773 81.16943359 112.41967773 81.1796875 114.70703125 C81.18355469 115.53654297 81.18742187 116.36605469 81.19140625 117.22070312 C81.17980469 118.08373047 81.16820312 118.94675781 81.15625 119.8359375 C81.16785156 120.69509766 81.17945313 121.55425781 81.19140625 122.43945312 C81.18753906 123.27025391 81.18367188 124.10105469 81.1796875 124.95703125 C81.17630371 125.71298584 81.17291992 126.46894043 81.16943359 127.24780273 C80.64232967 130.16809109 79.93533777 131.32449284 77.78125 133.3984375 C75.01275258 133.79584701 72.63901153 133.93535368 69.86914062 133.90014648 C68.66139229 133.90825096 68.66139229 133.90825096 67.429245 133.91651917 C64.76495727 133.9290373 62.10174368 133.91249555 59.4375 133.89453125 C57.5880935 133.89468617 55.73868667 133.89617393 53.88928223 133.89894104 C50.01214253 133.90032641 46.13537215 133.88774397 42.25830078 133.86499023 C37.28460311 133.83660515 32.31151927 133.83934106 27.33777618 133.85208035 C23.51852155 133.85903014 19.6994092 133.85125626 15.88017273 133.83882332 C14.04612269 133.83430201 12.21205742 133.83397793 10.37800598 133.83788872 C7.81613781 133.84079411 5.25512017 133.82432675 2.69335938 133.80249023 C1.55244087 133.80924271 1.55244087 133.80924271 0.38847351 133.81613159 C-4.73218812 133.74348631 -4.73218812 133.74348631 -6.91316414 132.1968317 C-8.67065472 129.77595616 -8.59607667 128.21602332 -8.59970093 125.2364502 C-8.6081604 124.16806412 -8.61661987 123.09967804 -8.62533569 121.99891663 C-8.619263 120.8268718 -8.61319031 119.65482697 -8.60693359 118.44726562 C-8.61219055 117.21294296 -8.61744751 115.9786203 -8.62286377 114.70689392 C-8.63381689 111.32042139 -8.63123337 107.93449761 -8.62172651 104.54805565 C-8.61413704 101.00602855 -8.62117354 97.46402508 -8.62588501 93.92199707 C-8.63134466 87.97350855 -8.62414554 82.02513172 -8.60986328 76.07666016 C-8.59353627 69.19706728 -8.59882464 62.31774111 -8.6153425 55.4381547 C-8.62895148 49.53403898 -8.63087994 43.63000361 -8.62302649 37.72587729 C-8.6183467 34.19847841 -8.61773341 30.67120494 -8.62763596 27.14381409 C-8.63790181 23.21230685 -8.62367774 19.28109894 -8.60693359 15.34960938 C-8.61300629 14.17756454 -8.61907898 13.00551971 -8.62533569 11.79795837 C-8.61687622 10.7295723 -8.60841675 9.66118622 -8.59970093 8.5604248 C-8.59856985 7.63054497 -8.59743877 6.70066513 -8.59627342 5.74260712 C-7.77277173 0.62920878 -4.68707261 0.01707643 0 0 Z " fill="#2C3945" transform="translate(188.21875,162.6015625)"/>
<path d="M0 0 C2.12696259 -0.00958631 4.2529082 -0.04053448 6.37963867 -0.07226562 C18.02242225 -0.16421072 28.20454381 1.28742988 37.22924805 9.24023438 C47.21165485 21.00988431 48.36293341 35.43127621 47.22924805 50.24023438 C45.72853644 61.00143465 42.13627703 70.79475398 33.35424805 77.55273438 C20.43816558 85.21698827 2.84538215 86.19145712 -11.77075195 84.24023438 C-14.26711104 81.74387529 -14.00977844 80.26821766 -14.03070068 76.86213684 C-14.02508118 76.11348862 -14.01946167 75.36484039 -14.01367188 74.59350586 C-14.01557022 73.80478088 -14.01746857 73.01605591 -14.01942444 72.20343018 C-14.0231374 69.58929592 -14.01242156 66.9754378 -14.0012207 64.36132812 C-14.00002919 62.55054253 -13.99957568 60.73975631 -13.99983215 58.92897034 C-13.99826644 55.13172545 -13.98996944 51.33457472 -13.9765625 47.53735352 C-13.95956043 42.65887894 -13.95574845 37.78050783 -13.95650768 32.9020071 C-13.95623637 29.16265365 -13.95076168 25.42332301 -13.94350624 21.68397713 C-13.94031413 19.8845544 -13.93835091 18.08512907 -13.93761253 16.28570366 C-13.93545538 13.77627995 -13.92672515 11.2669682 -13.91601562 8.75756836 C-13.91646881 8.0068959 -13.916922 7.25622345 -13.91738892 6.48280334 C-13.86069752 -2.55636126 -7.43080671 0.02023594 0 0 Z " fill="#FDFDFC" transform="translate(125.770751953125,30.759765625)"/>
<path d="M0 0 C1.05960938 -0.00386719 2.11921875 -0.00773438 3.2109375 -0.01171875 C4.86996094 0.00568359 4.86996094 0.00568359 6.5625 0.0234375 C8.22152344 0.00603516 8.22152344 0.00603516 9.9140625 -0.01171875 C10.97367188 -0.00785156 12.03328125 -0.00398437 13.125 0 C14.58099609 0.00507568 14.58099609 0.00507568 16.06640625 0.01025391 C19.0600825 0.47581975 19.7532055 1.0133335 21.5625 3.3984375 C21.94002342 5.77384186 21.94002342 5.77384186 21.94345093 8.63635254 C21.9519104 9.72156693 21.96036987 10.80678131 21.96908569 11.92488098 C21.963013 13.11562729 21.95694031 14.3063736 21.95068359 15.53320312 C21.95594055 16.78703293 21.96119751 18.04086273 21.96661377 19.33268738 C21.97756739 22.77287417 21.97498303 26.21252083 21.96547651 29.65267754 C21.95788745 33.25075895 21.96492342 36.8488171 21.96963501 40.44689941 C21.97509478 46.48954417 21.96789522 52.53207897 21.95361328 58.57470703 C21.93728626 65.56336164 21.94257461 72.55175369 21.9590925 79.54040194 C21.97270113 85.53793477 21.9746301 91.53538852 21.96677649 97.5329318 C21.96209651 101.11622135 21.96148393 104.69938743 21.97138596 108.28266907 C21.98165118 112.2764407 21.96742829 116.26991764 21.95068359 120.26367188 C21.95979263 122.04979134 21.95979263 122.04979134 21.96908569 123.87199402 C21.96062622 124.9572084 21.95216675 126.04242279 21.94345093 127.16052246 C21.94231985 128.10515099 21.94118877 129.04977951 21.94002342 130.02303314 C21.49292176 132.83622878 20.83692056 133.73060191 18.5625 135.3984375 C16.06640625 135.78662109 16.06640625 135.78662109 13.125 135.796875 C11.53558594 135.80267578 11.53558594 135.80267578 9.9140625 135.80859375 C8.80804688 135.79699219 7.70203125 135.78539062 6.5625 135.7734375 C5.45648438 135.78503906 4.35046875 135.79664063 3.2109375 135.80859375 C2.15132812 135.80472656 1.09171875 135.80085937 0 135.796875 C-0.97066406 135.79349121 -1.94132812 135.79010742 -2.94140625 135.78662109 C-5.9350825 135.32105525 -6.6282055 134.7835415 -8.4375 132.3984375 C-8.81502342 130.02303314 -8.81502342 130.02303314 -8.81845093 127.16052246 C-8.8269104 126.07530807 -8.83536987 124.99009369 -8.84408569 123.87199402 C-8.838013 122.68124771 -8.83194031 121.4905014 -8.82568359 120.26367188 C-8.83356903 118.38292717 -8.83356903 118.38292717 -8.84161377 116.46418762 C-8.85256739 113.02400083 -8.84998303 109.58435417 -8.84047651 106.14419746 C-8.83288745 102.54611605 -8.83992342 98.9480579 -8.84463501 95.34997559 C-8.85009478 89.30733083 -8.84289522 83.26479603 -8.82861328 77.22216797 C-8.81228626 70.23351336 -8.81757461 63.24512131 -8.8340925 56.25647306 C-8.84770113 50.25894023 -8.8496301 44.26148648 -8.84177649 38.2639432 C-8.83709651 34.68065365 -8.83648393 31.09748757 -8.84638596 27.51420593 C-8.85665118 23.5204343 -8.84242829 19.52695736 -8.82568359 15.53320312 C-8.83175629 14.34245682 -8.83782898 13.15171051 -8.84408569 11.92488098 C-8.83562622 10.8396666 -8.82716675 9.75445221 -8.81845093 8.63635254 C-8.81731985 7.69172401 -8.81618877 6.74709549 -8.81502342 5.77384186 C-7.98040594 0.52236901 -4.78841052 0.01669267 0 0 Z " fill="#2C3943" transform="translate(37.4375,4.6015625)"/>
<path d="M0 0 C1.11439453 0.00322266 2.22878906 0.00644531 3.37695312 0.00976562 C4.48748047 -0.00634766 5.59800781 -0.02246094 6.7421875 -0.0390625 C8.33836914 -0.0400293 8.33836914 -0.0400293 9.96679688 -0.04101562 C11.43234009 -0.04548706 11.43234009 -0.04548706 12.92749023 -0.05004883 C15.93852945 0.39623699 16.62147405 0.92896682 18.43945312 3.32226562 C18.81697655 5.66643524 18.81697655 5.66643524 18.82040405 8.48425293 C18.82886353 9.55263901 18.837323 10.62102509 18.84603882 11.7217865 C18.83996613 12.89383133 18.83389343 14.06587616 18.82763672 15.2734375 C18.83289368 16.50776016 18.83815063 17.74208282 18.84356689 19.0138092 C18.85452002 22.40028173 18.8519365 25.78620551 18.84242964 29.17264748 C18.83484016 32.71467457 18.84187666 36.25667805 18.84658813 39.79870605 C18.85204778 45.74719458 18.84484866 51.6955714 18.83056641 57.64404297 C18.8142394 64.52363585 18.81952777 71.40296201 18.83604562 78.28254843 C18.8496546 84.18666414 18.85158306 90.09069951 18.84372962 95.99482584 C18.83904982 99.52222472 18.83843653 103.04949819 18.84833908 106.57688904 C18.85860494 110.50839628 18.84438086 114.43960418 18.82763672 118.37109375 C18.83674576 120.129161 18.83674576 120.129161 18.84603882 121.92274475 C18.83757935 122.99113083 18.82911987 124.05951691 18.82040405 125.16027832 C18.81927298 126.09015816 18.8181419 127.02003799 18.81697655 127.97809601 C18.36763948 130.76818066 17.68951477 131.65990726 15.43945312 133.32226562 C13.03515625 133.71044922 13.03515625 133.71044922 10.22070312 133.72070312 C9.20621094 133.72457031 8.19171875 133.7284375 7.14648438 133.73242188 C6.08816406 133.72082031 5.02984375 133.70921875 3.93945312 133.69726562 C2.88113281 133.70886719 1.8228125 133.72046875 0.73242188 133.73242188 C-0.78931641 133.72662109 -0.78931641 133.72662109 -2.34179688 133.72070312 C-3.27056641 133.71731934 -4.19933594 133.71393555 -5.15625 133.71044922 C-8.08028579 133.23835164 -8.78271088 132.6542973 -10.56054688 130.32226562 C-10.93527699 127.95968533 -10.93527699 127.95968533 -10.93476868 125.11558533 C-10.94178299 124.03733994 -10.9487973 122.95909454 -10.95602417 121.84817505 C-10.94838043 120.66520844 -10.94073669 119.48224182 -10.93286133 118.26342773 C-10.93651199 117.01774521 -10.94016266 115.77206268 -10.94392395 114.4886322 C-10.95064802 111.07123044 -10.94390619 107.65437172 -10.93059182 104.23702312 C-10.91928473 100.66383868 -10.92338419 97.09066849 -10.92533875 93.51747131 C-10.92622184 87.5177034 -10.91513714 81.51804846 -10.89672852 75.51831055 C-10.87555096 68.57625819 -10.87205294 61.63437123 -10.87829047 54.69229311 C-10.88397949 48.01967361 -10.87834458 41.3471125 -10.86711693 34.67450142 C-10.86246576 31.83202602 -10.8615993 28.98958626 -10.86370277 26.14710808 C-10.86593123 22.18191207 -10.85149674 18.21687428 -10.83520508 14.25170898 C-10.8376825 13.06671814 -10.84015991 11.88172729 -10.8427124 10.66082764 C-10.83562759 9.58540207 -10.82854279 8.5099765 -10.82124329 7.40196228 C-10.81919042 6.46378631 -10.81713755 5.52561033 -10.81502247 4.55900478 C-10.1449917 -1.33029894 -4.59076662 0.03062367 0 0 Z " fill="#2A3742" transform="translate(139.560546875,162.677734375)"/>
<path d="M0 0 C0.76121658 -0.00807175 1.52243317 -0.01614349 2.30671692 -0.02445984 C3.92328604 -0.0383196 5.53988467 -0.04903326 7.15649414 -0.05688477 C9.61727486 -0.07402886 12.07668787 -0.11788652 14.53710938 -0.16210938 C16.10806304 -0.17224223 17.67902813 -0.18075648 19.25 -0.1875 C20.34721626 -0.21376213 20.34721626 -0.21376213 21.46659851 -0.24055481 C26.62189362 -0.21891753 29.49573475 0.98552725 33.45703125 4.23828125 C38.20104456 10.39267689 39.13248675 15.6331526 38.45703125 23.23828125 C37.17529034 29.32111947 34.75705669 32.77288 29.45703125 36.23828125 C24.57557737 37.92128833 20.35981797 38.47779015 15.2109375 38.43359375 C14.55496078 38.43076385 13.89898407 38.42793396 13.22312927 38.42501831 C11.15506716 38.41394109 9.08745952 38.38886188 7.01953125 38.36328125 C5.6061261 38.35323527 4.19271408 38.34411227 2.77929688 38.3359375 C-0.66160269 38.31404309 -4.10224127 38.27960176 -7.54296875 38.23828125 C-9.09772139 35.12877596 -8.68496399 31.83381095 -8.67578125 28.421875 C-8.67673798 27.650215 -8.6776947 26.87855499 -8.67868042 26.08351135 C-8.67936121 24.45191364 -8.67751395 22.82031322 -8.67333984 21.1887207 C-8.66798288 18.68239304 -8.67329194 16.176244 -8.6796875 13.66992188 C-8.67902684 12.08723919 -8.67774594 10.50455661 -8.67578125 8.921875 C-8.67780548 8.16772812 -8.67982971 7.41358124 -8.68191528 6.63658142 C-8.6483964 -0.74522892 -6.69928464 0.06673038 0 0 Z " fill="#FCFCFB" transform="translate(45.54296875,188.76171875)"/>
<path d="M0 0 C0.66 0.66 1.32 1.32 2 2 C1.66839894 8.47494696 -0.61306577 14.50708711 -2.625 20.625 C-2.97820312 21.71353271 -3.33140625 22.80206543 -3.6953125 23.92358398 C-7.07198604 34.30157906 -10.51950653 44.65640848 -14 55 C-18 55 -18 55 -20.69140625 52.515625 C-21.65969857 51.43708814 -22.61639109 50.34804813 -23.5625 49.25 C-24.04396484 48.71117187 -24.52542969 48.17234375 -25.02148438 47.6171875 C-27.48394141 44.83972565 -29.82932503 42.01117201 -32 39 C-30.37238997 35.0213977 -27.60077598 32.19690056 -24.6875 29.125 C-20.98418956 25.18487923 -17.42803816 21.18358027 -14 17 C-17.89225355 19.82379179 -21.6693992 22.6715394 -25.25 25.8828125 C-25.8169458 26.38514404 -26.3838916 26.88747559 -26.96801758 27.4050293 C-28.10405105 28.41750723 -29.22923112 29.44231125 -30.3425293 30.47973633 C-34.27799013 33.96430254 -34.27799013 33.96430254 -37.44921875 34.12109375 C-41.02025449 32.551588 -44.00269876 30.44536281 -47.125 28.125 C-48.05505859 27.45404297 -48.05505859 27.45404297 -49.00390625 26.76953125 C-50.6939337 25.53744672 -52.36966035 24.31014033 -54 23 C-54.58120605 22.53706543 -55.16241211 22.07413086 -55.76123047 21.59716797 C-57 20 -57 20 -57.07568359 17.96044922 C-55.38252838 14.87464887 -53.09099514 14.64603438 -49.7890625 13.6328125 C-49.15321732 13.43246399 -48.51737213 13.23211548 -47.86225891 13.0256958 C-45.78776903 12.37609645 -43.70692606 11.75031337 -41.625 11.125 C-40.20340253 10.6858775 -38.78225952 10.24528108 -37.36157227 9.80322266 C-34.5433011 8.92821322 -31.72263238 8.06168128 -28.89990234 7.20117188 C-25.56155413 6.17935055 -22.24073751 5.11130888 -18.92578125 4.015625 C-18.06581543 3.73315918 -17.20584961 3.45069336 -16.31982422 3.15966797 C-14.78206836 2.65317613 -13.24580819 2.14210969 -11.71142578 1.62548828 C-7.70025224 0.33091698 -4.21684072 -0.43860156 0 0 Z " fill="#FDC710" transform="translate(369,206)"/>
<path d="M0 0 C3.16501361 1.58250681 3.32874066 4.25032731 4.4609375 7.52734375 C4.6927774 8.19028946 4.92461731 8.85323517 5.16348267 9.53627014 C5.90757081 11.66768124 6.64171191 13.80235177 7.375 15.9375 C8.33782695 18.71860833 9.30534733 21.49806414 10.2734375 24.27734375 C10.50552917 24.94921722 10.73762085 25.6210907 10.97674561 26.31332397 C12.60486089 30.99086218 14.41182389 35.55784379 16.42041016 40.08422852 C17 42 17 42 16 45 C5.77 45 -4.46 45 -15 45 C-13.875 37.125 -13.875 37.125 -12.60131836 33.71704102 C-12.32110336 32.95678116 -12.04088837 32.1965213 -11.75218201 31.41322327 C-11.45111038 30.61814865 -11.15003876 29.82307404 -10.83984375 29.00390625 C-10.53051407 28.17036118 -10.22118439 27.3368161 -9.90248108 26.47801208 C-8.92069957 23.83701379 -7.92927183 21.19976071 -6.9375 18.5625 C-6.26693583 16.76391121 -5.59700727 14.96508531 -4.92773438 13.16601562 C-3.29249742 8.77456627 -1.64860417 4.38644769 0 0 Z " fill="#FBFBFA" transform="translate(394,41)"/>
<path d="M0 0 C0.82502518 0.00719055 1.65005035 0.0143811 2.50007629 0.02178955 C3.36843613 0.0214975 4.23679596 0.02120544 5.13146973 0.02090454 C8.01013582 0.02230116 10.8885451 0.03787791 13.76716614 0.05352783 C15.75970824 0.05725678 17.75225217 0.06010431 19.74479675 0.06210327 C24.99573303 0.06974901 30.24655912 0.08940556 35.49745178 0.11151123 C40.8529664 0.13194942 46.20849878 0.14110065 51.56404114 0.15118408 C62.07711045 0.17265058 72.59009789 0.20679784 83.10310364 0.24884033 C83.10310364 0.57884033 83.10310364 0.90884033 83.10310364 1.24884033 C63.63310364 1.24884033 44.16310364 1.24884033 24.10310364 1.24884033 C23.77310364 3.55884033 23.44310364 5.86884033 23.10310364 8.24884033 C22.33997864 8.53759033 21.57685364 8.82634033 20.79060364 9.12384033 C17.95281056 10.21153046 17.95281056 10.21153046 15.10310364 12.24884033 C14.11310364 12.24884033 13.12310364 12.24884033 12.10310364 12.24884033 C11.83497864 12.86759033 11.56685364 13.48634033 11.29060364 14.12384033 C10.10310364 16.24884033 10.10310364 16.24884033 7.10310364 18.24884033 C6.44310364 19.23884033 5.78310364 20.22884033 5.10310364 21.24884033 C4.44310364 20.91884033 3.78310364 20.58884033 3.10310364 20.24884033 C2.77310364 20.90884033 2.44310364 21.56884033 2.10310364 22.24884033 C1.44310364 22.24884033 0.78310364 22.24884033 0.10310364 22.24884033 C0.10310364 22.90884033 0.10310364 23.56884033 0.10310364 24.24884033 C-0.55689636 24.24884033 -1.21689636 24.24884033 -1.89689636 24.24884033 C-1.23689636 25.89884033 -0.57689636 27.54884033 0.10310364 29.24884033 C-6.77189636 32.24884033 -6.77189636 32.24884033 -7.89689636 32.24884033 C-7.94628264 28.01301706 -7.98260899 23.77734568 -8.00675964 19.5413208 C-8.01682599 18.09988486 -8.03048017 16.65846938 -8.04777527 15.21710205 C-8.07199648 13.146901 -8.08337278 11.07696957 -8.09220886 9.00665283 C-8.1026825 7.76029053 -8.11315613 6.51392822 -8.12394714 5.22979736 C-7.70045417 -0.33025556 -4.89763444 0.01791517 0 0 Z " fill="#303E49" transform="translate(227.8968963623047,6.75115966796875)"/>
<path d="M0 0 C0.33 0 0.66 0 1 0 C1.02888146 3.31248187 1.04675799 6.62493167 1.0625 9.9375 C1.07087891 10.88302734 1.07925781 11.82855469 1.08789062 12.80273438 C1.09272461 14.15141602 1.09272461 14.15141602 1.09765625 15.52734375 C1.10551147 16.77632446 1.10551147 16.77632446 1.11352539 18.05053711 C1 20 1 20 0 21 C-1.70772358 21.08713831 -3.41898649 21.10700007 -5.12890625 21.09765625 C-6.68061523 21.09282227 -6.68061523 21.09282227 -8.26367188 21.08789062 C-9.35228516 21.07951172 -10.44089844 21.07113281 -11.5625 21.0625 C-13.2012207 21.05573242 -13.2012207 21.05573242 -14.87304688 21.04882812 C-17.58208495 21.03699826 -20.29101599 21.02051543 -23 21 C-23 20.67 -23 20.34 -23 20 C-16.30386804 19.202163 -9.74233419 18.87089147 -3 19 C-3.66 18.34 -4.32 17.68 -5 17 C-4.625 14.5625 -4.625 14.5625 -4 12 C-4 11.01 -4 10.02 -4 9 C-3.34 8.34 -2.68 7.68 -2 7 C-1.67 7.33 -1.34 7.66 -1 8 C-0.67 5.36 -0.34 2.72 0 0 Z " fill="#34424C" transform="translate(34,273)"/>
<path d="M0 0 C2 3 2 3 2.9375 5.125 C3.91908645 7.34495729 3.91908645 7.34495729 7 8 C7.33 8.99 7.66 9.98 8 11 C8.33 10.67 8.66 10.34 9 10 C9.66 10.33 10.32 10.66 11 11 C10.34 12.98 9.68 14.96 9 17 C8.34 17 7.68 17 7 17 C7.99 20.3 8.98 23.6 10 27 C3.67921587 20.67921587 0.27179267 11.25465837 -0.1875 2.375 C-0.125625 1.59125 -0.06375 0.8075 0 0 Z M4 12 C4 12.66 4 13.32 4 14 C4.66 13.67 5.32 13.34 6 13 C5.34 12.67 4.68 12.34 4 12 Z " fill="#202933" transform="translate(274,241)"/>
<path d="M0 0 C6.93 0 13.86 0 21 0 C21 0.33 21 0.66 21 1 C20.04287109 1.07347656 20.04287109 1.07347656 19.06640625 1.1484375 C18.24011719 1.22320312 17.41382813 1.29796875 16.5625 1.375 C15.32693359 1.47941406 15.32693359 1.47941406 14.06640625 1.5859375 C13.04353516 1.79089844 13.04353516 1.79089844 12 2 C11.67 2.66 11.34 3.32 11 4 C11.66 4.33 12.32 4.66 13 5 C12.01 5 11.02 5 10 5 C10 4.34 10 3.68 10 3 C9.01 3.66 8.02 4.32 7 5 C6.01 4.67 5.02 4.34 4 4 C4.33 3.34 4.66 2.68 5 2 C3.35 1.67 1.7 1.34 0 1 C0 0.67 0 0.34 0 0 Z " fill="#35424D" transform="translate(331,162)"/>
<path d="M0 0 C2.60423895 1.43682149 2.96246208 3.23737675 3.8125 6 C2.1625 7.32 0.5125 8.64 -1.1875 10 C-0.6925 9.1028125 -0.6925 9.1028125 -0.1875 8.1875 C1.02037988 5.94613529 1.02037988 5.94613529 0.8125 3 C-4.6325 4.485 -4.6325 4.485 -10.1875 6 C-4.1875 0 -4.1875 0 0 0 Z " fill="#131821" transform="translate(331.1875,241)"/>
<path d="M0 0 C1.32 0.66 2.64 1.32 4 2 C3.67 3.65 3.34 5.3 3 7 C1.5199159 6.88637738 0.04089926 6.75877092 -1.4375 6.625 C-2.26121094 6.55539062 -3.08492188 6.48578125 -3.93359375 6.4140625 C-4.61550781 6.27742188 -5.29742187 6.14078125 -6 6 C-6.33 5.34 -6.66 4.68 -7 4 C-5.02 4 -3.04 4 -1 4 C-0.67 2.68 -0.34 1.36 0 0 Z " fill="#202A33" transform="translate(326,291)"/>
<path d="M0 0 C2.36557373 2.13300328 3.62967528 3.95949399 4.75 6.9375 C5.01296875 7.60652344 5.2759375 8.27554687 5.546875 8.96484375 C6.07046274 11.31647491 5.74954377 12.73617523 5 15 C3.74335022 12.09399739 3 10.20395416 3 7 C2.01 6.67 1.02 6.34 0 6 C0 4.02 0 2.04 0 0 Z M-1 6 C-0.67 6.66 -0.34 7.32 0 8 C-0.66 7.67 -1.32 7.34 -2 7 C-1.67 6.67 -1.34 6.34 -1 6 Z " fill="#1A2129" transform="translate(411,7)"/>
<path d="M0 0 C-0.3125 1.875 -0.3125 1.875 -1 4 C-1.99 4.66 -2.98 5.32 -4 6 C-4.33 5.01 -4.66 4.02 -5 3 C-7.01508358 2.26676204 -7.01508358 2.26676204 -9 2 C-3.375 -1.125 -3.375 -1.125 0 0 Z " fill="#35414B" transform="translate(333,244)"/>
<path d="M0 0 C1.66666667 1.66666667 3.33333333 3.33333333 5 5 C2.69 5.33 0.38 5.66 -2 6 C-2.33 5.01 -2.66 4.02 -3 3 C-2.01 2.01 -1.02 1.02 0 0 Z " fill="#1E2932" transform="translate(356,292)"/>
<path d="M0 0 C0.66 0.33 1.32 0.66 2 1 C1.0409375 2.1446875 1.0409375 2.1446875 0.0625 3.3125 C-2.14232781 5.88246713 -2.14232781 5.88246713 -3 9 C-3.66 7.68 -4.32 6.36 -5 5 C-3.35 3.35 -1.7 1.7 0 0 Z " fill="#FEBC07" transform="translate(342,238)"/>
</svg>
